<svg xmlns="http://www.w3.org/2000/svg" width="30" height="30" viewBox="0 0 30 30"><defs><linearGradient id="5vp2a" x1="15" x2="15" y1="30" y2="0" gradientUnits="userSpaceOnUse"><stop offset="0" stop-color="#f78e6a" stop-opacity="0"/><stop offset="1" stop-color="#fc66a2"/></linearGradient></defs><g><g><path fill="#f78e6a" d="M15 0c8.284 0 15 6.715 15 15 0 8.284-6.716 15-15 15-8.284 0-15-6.716-15-15C0 6.715 6.716 0 15 0z"/><path fill="url(#5vp2a)" d="M15 0c8.284 0 15 6.715 15 15 0 8.284-6.716 15-15 15-8.284 0-15-6.716-15-15C0 6.715 6.716 0 15 0z"/></g><g><path fill="#fff" d="M15.003 19.011l-3.005-6.02h6.011z"/></g></g></svg>